HIERARCHY
ROOT Joint1
{
	OFFSET 0.000000 0.000000 0.000000
	CHANNELS 6 Xposition Yposition Zposition Xrotation Yrotation Zrotation
	JOINT Joint2
	{
		OFFSET -0.000000 0.000000 1.456275
		CHANNELS 6 Xposition Yposition Zposition Xrotation Yrotation Zrotation
		JOINT Joint3
		{
			OFFSET -0.000000 0.000002 1.471446
			CHANNELS 6 Xposition Yposition Zposition Xrotation Yrotation Zrotation
			JOINT Joint4
			{
				OFFSET 0.625745 0.000000 0.917755
				CHANNELS 6 Xposition Yposition Zposition Xrotation Yrotation Zrotation
				JOINT Joint5
				{
					OFFSET -0.629534 0.000001 0.940221
					CHANNELS 6 Xposition Yposition Zposition Xrotation Yrotation Zrotation
					JOINT Joint6
					{
						OFFSET -0.000001 0.113772 1.960660
						CHANNELS 6 Xposition Yposition Zposition Xrotation Yrotation Zrotation
						JOINT Joint7
						{
							OFFSET -0.669733 -0.113771 0.388340
							CHANNELS 6 Xposition Yposition Zposition Xrotation Yrotation Zrotation
							End Site
							{
								OFFSET 0.005509 0.005509 0.438980
							}
						}
					}
				}
			}
		}
	}
}
MOTION
Frames: 12
Frame Time: 0.041667
0.000000 0.000000 0.000000 -0.000000 1.019410 47.191877 -0.000000 0.000000 1.456275 0.000001 -22.008720 -0.000002 -0.000000 0.000002 1.471446 -0.000003 -1.133463 -48.495668 0.625745 0.000000 0.917755 -0.000013 85.340994 0.000010 -0.629534 0.000001 0.940221 -0.000000 1.709736 47.937867 -0.000001 0.113772 1.960661 -88.303882 -213.836612 0.000002 -0.669733 -0.113771 0.388340 0.311223 2.588111 47.156155 
0.000000 0.000000 0.000000 -0.000000 1.019410 45.949930 -0.000000 0.000000 1.456275 -0.000001 -22.613144 -0.000001 -0.000000 0.000002 1.471446 -0.000003 -1.133466 -47.220264 0.625744 0.000000 0.917755 -0.000008 86.648340 0.000026 -0.629534 0.000001 0.940221 -0.000000 1.709737 46.676068 -0.000001 0.113772 1.960660 -88.303882 -215.315211 0.000004 -0.669733 -0.113771 0.388339 0.308854 2.629025 49.465528 
0.000000 0.000000 0.000000 -0.000000 1.019410 44.707983 -0.000000 0.000000 1.456275 -0.000000 -23.217572 -0.000002 -0.000000 0.000002 1.471445 -0.000001 -1.133465 -45.944862 0.625744 0.000000 0.917754 -0.000002 87.955679 0.000030 -0.629534 0.000001 0.940221 -0.000001 1.709736 45.414280 -0.000001 0.113772 1.960660 -88.303882 -216.793797 0.000003 -0.669733 -0.113771 0.388340 0.304841 2.669808 51.774972 
0.000000 0.000000 0.000000 -0.000000 1.019410 43.466033 -0.000000 -0.000000 1.456275 -0.000001 -23.821992 -0.000000 -0.000000 0.000002 1.471445 -0.000001 -1.133464 -44.669454 0.625745 0.000000 0.917754 -0.000122 89.263032 0.000067 -0.629534 0.000001 0.940221 -0.000000 1.709736 44.152481 -0.000001 0.113773 1.960660 -88.303875 -218.272383 0.000001 -0.669733 -0.113771 0.388341 0.299181 2.710397 54.084491 
0.000000 0.000000 0.000000 -0.000000 1.019410 42.224093 -0.000000 0.000000 1.456275 -0.000001 -24.426420 0.000001 -0.000000 0.000002 1.471445 -0.000003 -1.133464 -43.394063 0.625745 0.000000 0.917755 0.000062 90.570371 -0.000098 -0.629534 0.000001 0.940221 -0.000000 1.709740 42.890682 -0.000001 0.113772 1.960660 -88.303875 -219.750968 0.000003 -0.669733 -0.113771 0.388340 0.291885 2.750724 56.394099 
0.000000 0.000000 0.000000 -0.000000 1.019410 40.982142 -0.000000 0.000000 1.456275 -0.000000 -25.030840 -0.000001 -0.000000 0.000002 1.471446 -0.000001 -1.133464 -42.118652 0.625745 0.000000 0.917755 0.000016 91.877710 -0.000023 -0.629534 0.000001 0.940221 -0.000000 1.709736 41.628890 -0.000000 0.113772 1.960660 -88.303882 -221.229568 0.000003 -0.669733 -0.113771 0.388340 0.282972 2.790727 58.703782 
0.000000 0.000000 0.000000 -0.000000 1.019410 39.740199 -0.000000 0.000000 1.456275 -0.000002 -25.635271 -0.000002 -0.000000 0.000002 1.471445 -0.000001 -1.133466 -40.843247 0.625744 0.000000 0.917755 0.000032 93.185056 -0.000017 -0.629534 0.000001 0.940221 -0.000001 1.709736 40.367094 -0.000001 0.113772 1.960660 -88.303882 -222.708153 0.000003 -0.669733 -0.113771 0.388340 0.272449 2.830337 61.013568 
0.000000 0.000000 0.000000 -0.000000 1.019410 38.498252 -0.000000 0.000000 1.456275 -0.000001 -26.239695 -0.000001 -0.000000 0.000002 1.471445 -0.000001 -1.133464 -39.567853 0.625745 0.000000 0.917755 0.000013 94.492402 -0.000008 -0.629534 0.000001 0.940221 0.000000 1.709737 39.105292 -0.000001 0.113772 1.960660 -88.303875 -224.186739 0.000003 -0.669733 -0.113771 0.388341 0.260338 2.869492 63.323421 
0.000000 0.000000 0.000000 -0.000000 1.019410 37.256302 -0.000000 0.000000 1.456275 -0.000001 -26.844115 -0.000001 -0.000000 0.000002 1.471446 -0.000001 -1.133462 -38.292452 0.625745 0.000000 0.917755 0.000008 95.799748 -0.000016 -0.629533 0.000001 0.940221 -0.000000 1.709737 37.843507 -0.000000 0.113771 1.960661 -88.303882 -225.665325 0.000001 -0.669733 -0.113771 0.388339 0.246654 2.908125 65.633378 
0.000000 0.000000 0.000000 -0.000000 1.019410 36.014351 -0.000000 0.000000 1.456275 0.000000 -27.448543 -0.000001 -0.000000 0.000002 1.471446 -0.000003 -1.133463 -37.017050 0.625745 0.000000 0.917755 0.000012 97.107088 -0.000015 -0.629534 0.000001 0.940221 -0.000001 1.709736 36.581711 -0.000001 0.113772 1.960661 -88.303882 -227.143910 0.000002 -0.669733 -0.113771 0.388341 0.231424 2.946179 67.943402 
0.000000 0.000000 0.000000 -0.000000 1.019410 34.772411 -0.000000 0.000000 1.456275 -0.000002 -28.052968 -0.000003 -0.000001 0.000002 1.471445 -0.000002 -1.133463 -35.741649 0.625745 0.000000 0.917755 0.000011 98.414434 -0.000007 -0.629533 0.000001 0.940221 -0.000001 1.709736 35.319909 -0.000001 0.113772 1.960660 -88.303875 -228.622510 0.000002 -0.669733 -0.113771 0.388339 0.214668 2.983588 70.253529 
0.000000 0.000000 0.000000 -0.000000 1.019410 33.530457 -0.000000 0.000000 1.456275 0.000002 -28.657397 0.000001 -0.000000 0.000002 1.471446 -0.000003 -1.133463 -34.466241 0.625744 0.000000 0.917755 0.000009 99.721786 -0.000008 -0.629534 0.000001 0.940221 -0.000000 1.709737 34.058117 -0.000000 0.113772 1.960661 -88.303882 -230.101095 0.000002 -0.669733 -0.113771 0.388340 0.196417 3.020292 72.563752 
